<?xml version="1.0" encoding="UTF-8" standalone="no"?>
<!-- Generator: Adobe Illustrator 14.0.0, SVG Export Plug-In . SVG Version: 6.00 Build 43363)  -->

<svg
   xmlns:dc="http://purl.org/dc/elements/1.1/"
   xmlns:cc="http://creativecommons.org/ns#"
   xmlns:rdf="http://www.w3.org/1999/02/22-rdf-syntax-ns#"
   xmlns:svg="http://www.w3.org/2000/svg"
   xmlns="http://www.w3.org/2000/svg"
   xmlns:sodipodi="http://sodipodi.sourceforge.net/DTD/sodipodi-0.dtd"
   xmlns:inkscape="http://www.inkscape.org/namespaces/inkscape"
   version="1.1"
   id="Layer_1"
   x="0px"
   y="0px"
   width="281.51999"
   height="30.870001"
   viewBox="0 0 281.51999 30.870001"
   enable-background="new 0 0 800 600"
   xml:space="preserve"
   inkscape:version="0.48.4 r9939"
   sodipodi:docname="neil arch.svg"><metadata
   id="metadata3077"><rdf:RDF><cc:Work
       rdf:about=""><dc:format>image/svg+xml</dc:format><dc:type
         rdf:resource="http://purl.org/dc/dcmitype/StillImage" /><dc:title></dc:title></cc:Work></rdf:RDF></metadata><defs
   id="defs3075" /><sodipodi:namedview
   pagecolor="#ffffff"
   bordercolor="#666666"
   borderopacity="1"
   objecttolerance="10"
   gridtolerance="10"
   guidetolerance="10"
   inkscape:pageopacity="0"
   inkscape:pageshadow="2"
   inkscape:window-width="1920"
   inkscape:window-height="1153"
   id="namedview3073"
   showgrid="false"
   inkscape:zoom="2.1991021"
   inkscape:cx="54.365913"
   inkscape:cy="31.492453"
   inkscape:window-x="-4"
   inkscape:window-y="-4"
   inkscape:window-maximized="1"
   inkscape:current-layer="Layer_1" />
<g
   id="g3033"
   transform="translate(-260.121,-284.29)">
	<path
   d="m 344.516,310.041 h -6.332 c -3.084,0 -5.78,-2.574 -6.144,-5.858 0,-0.021 -0.082,-1.087 -0.082,-1.087 0,0 0.082,-1.066 0.082,-1.087 0.364,-3.281 3.059,-5.852 6.144,-5.852 3.08,0 5.877,2.57 6.248,5.852 0,0.021 0.084,1.087 0.084,1.087 v 6.945 z m 5.113,-6.945 c 0,-6.313 -5.139,-11.443 -11.449,-11.443 -6.311,0 -11.447,5.13 -11.447,11.443 0,6.306 5.136,11.446 11.447,11.446 h 11.449 v -11.446 z"
   id="path3035"
   inkscape:connector-curvature="0"
   style="fill:#2f6f37" />
	<path
   d="m 442.932,306.773 -0.062,0.15 c -0.52,1.162 -2.201,3.869 -6.515,3.869 -3.148,0 -5.804,-2.533 -6.323,-5.927 1.124,0 18.194,0 18.194,0 l 0.058,-0.968 0.021,-0.468 c 0,-3.165 -1.221,-6.111 -3.441,-8.337 -2.223,-2.218 -5.172,-3.441 -8.31,-3.441 -6.483,0 -11.758,5.271 -11.758,11.751 0,6.483 5.274,11.758 11.758,11.758 3.935,0 8.944,-2.105 11.19,-8.022 l 0.105,-0.365 h -4.917 z m -12.356,-6.334 c 0.502,-1.354 2.078,-4.382 6.221,-4.382 3.902,0 5.646,2.796 6.172,4.382 -1.155,0 -11.18,0 -12.393,0 z"
   id="path3037"
   inkscape:connector-curvature="0"
   style="fill:#2f6f37" />
	<path
   d="m 536.26,306.773 -0.068,0.15 c -0.517,1.162 -2.205,3.869 -6.512,3.869 -3.148,0 -5.807,-2.533 -6.33,-5.927 1.125,0 18.193,0 18.193,0 l 0.065,-0.968 0.024,-0.468 c 0,-3.158 -1.225,-6.111 -3.449,-8.337 -2.225,-2.218 -5.175,-3.441 -8.309,-3.441 -6.48,0 -11.758,5.271 -11.758,11.751 0,6.483 5.277,11.758 11.758,11.758 3.938,0 8.944,-2.105 11.184,-8.016 l 0.115,-0.372 h -4.913 z m -12.367,-6.334 c 0.506,-1.354 2.082,-4.382 6.225,-4.382 3.9,0 5.643,2.803 6.17,4.382 -1.149,0 -11.182,0 -12.395,0 z"
   id="path3039"
   inkscape:connector-curvature="0"
   style="fill:#2f6f37" />
	<path
   d="m 362.899,291.652 h -0.887 c -2.957,0 -5.621,0.971 -7.499,2.744 -1.89,1.781 -2.933,4.3 -2.933,7.106 v 13.039 h 4.918 v -13.039 c 0,-2.916 2.268,-4.96 5.513,-4.96 h 0.887 v -4.89 z"
   id="path3041"
   inkscape:connector-curvature="0"
   style="fill:#2f6f37" />
	<path
   d="m 519.02,291.652 h -0.893 c -2.953,0 -5.615,0.974 -7.492,2.744 -1.891,1.781 -2.936,4.3 -2.936,7.106 v 13.039 h 4.918 v -13.039 c 0,-2.916 2.27,-4.96 5.51,-4.96 h 0.898 l -0.005,-4.89 z"
   id="path3043"
   inkscape:connector-curvature="0"
   style="fill:#2f6f37" />
	<path
   d="m 397.263,291.652 c -4.185,0 -6.375,3.359 -6.375,3.359 V 284.3 h -4.922 v 30.242 h 4.922 v -12.141 c 0,-4.04 2.522,-6.2 5.505,-6.2 3.143,0 5.509,2.273 5.509,5.302 v 13.039 h 4.922 v -12.387 c 0,-6.818 -3.422,-10.503 -9.561,-10.503 z"
   id="path3045"
   inkscape:connector-curvature="0"
   style="fill:#2f6f37" />
	<path
   d="m 500.822,305.146 c 0,3.059 -2.417,5.455 -5.504,5.455 -3.09,0 -5.51,-2.396 -5.51,-5.455 v -13.04 h -4.922 v 13.04 c 0,5.797 4.293,9.851 10.432,9.851 6.139,0 10.429,-4.054 10.429,-9.851 v -13.04 h -4.925 v 13.04 z"
   id="path3047"
   inkscape:connector-curvature="0"
   style="fill:#2f6f37" />
	<rect
   x="408.77499"
   y="292.10599"
   width="5.0760002"
   height="22.436001"
   id="rect3049"
   style="fill:#2f6f37" />
	<path
   d="m 366.99,303.403 c 0,0 0.087,-1.125 0.087,-1.146 0.383,-3.462 3.228,-6.173 6.48,-6.173 3.009,0 5.115,1.278 6.243,3.787 l 0.068,0.171 h 4.927 l -0.12,-0.372 c -2.829,-7.438 -9.078,-8.019 -10.922,-8.019 -6.482,0 -11.758,5.271 -11.758,11.751 0,6.483 5.276,11.758 11.758,11.758 1.844,0 8.094,-0.578 10.922,-8.022 l 0.12,-0.365 h -4.927 l -0.068,0.16 c -1.128,2.513 -3.233,3.794 -6.243,3.794 -3.252,0 -6.098,-2.714 -6.48,-6.176 10e-4,-0.02 -0.087,-1.148 -0.087,-1.148 z"
   id="path3051"
   inkscape:connector-curvature="0"
   style="fill:#2f6f37" />
	<path
   d="m 454.467,303.403 c 0,0 0.09,-1.125 0.093,-1.146 0.38,-3.462 3.224,-6.173 6.474,-6.173 3.015,0 5.117,1.278 6.244,3.787 l 0.068,0.171 h 4.933 l -0.123,-0.372 c -2.823,-7.438 -9.071,-8.019 -10.927,-8.019 -6.48,0 -11.752,5.271 -11.752,11.751 0,6.483 5.271,11.758 11.752,11.758 1.855,0 8.104,-0.578 10.927,-8.022 l 0.123,-0.365 h -4.933 l -0.068,0.16 c -1.127,2.513 -3.229,3.794 -6.244,3.794 -3.25,0 -6.094,-2.714 -6.474,-6.176 -0.003,-0.02 -0.093,-1.148 -0.093,-1.148 z"
   id="path3053"
   inkscape:connector-curvature="0"
   style="fill:#2f6f37" />
	<g
   id="g3055">
		<path
   d="m 278.04,294.396 c -1.878,-1.773 -4.541,-2.744 -7.499,-2.744 -2.948,0 -5.612,0.971 -7.496,2.744 -1.887,1.781 -2.924,4.3 -2.924,7.106 v 13.039 h 4.918 v -13.039 c 0,-1.483 0.567,-2.857 1.591,-3.883 1.023,-1.016 2.417,-1.579 3.91,-1.579 3.093,0 5.51,2.396 5.51,5.462 v 13.039 h 4.925 v -13.039 c 10e-4,-2.806 -1.045,-5.324 -2.935,-7.106 z"
   id="path3057"
   inkscape:connector-curvature="0"
   style="fill:#2f6f37" />
		<rect
   x="313.85001"
   y="284.29999"
   width="5.0760002"
   height="30.242001"
   id="rect3059"
   style="fill:#2f6f37" />
		<rect
   x="306.827"
   y="292.10599"
   width="5.0689998"
   height="22.436001"
   id="rect3061"
   style="fill:#2f6f37" />
		<path
   d="m 300.285,306.773 -0.063,0.15 c -0.52,1.162 -2.208,3.869 -6.513,3.869 -3.153,0 -5.811,-2.533 -6.325,-5.927 1.118,0 18.19,0 18.19,0 l 0.062,-0.968 0.021,-0.468 c 0,-3.165 -1.224,-6.111 -3.442,-8.337 -2.227,-2.218 -5.175,-3.441 -8.311,-3.441 -6.484,0 -11.756,5.271 -11.756,11.751 0,6.483 5.272,11.758 11.756,11.758 3.936,0 8.941,-2.105 11.186,-8.022 l 0.111,-0.365 h -4.916 z m -12.361,-6.334 c 0.5,-1.354 2.078,-4.382 6.221,-4.382 3.903,0 5.646,2.796 6.174,4.382 -1.156,0 -11.185,0 -12.395,0 z"
   id="path3063"
   inkscape:connector-curvature="0"
   style="fill:#2f6f37" />
	</g>
	<g
   id="g3065">
		<path
   d="m 415.8,314.542 h 5.075 c 0,0 0,-16.949 0,-17.938 0.883,0 4.468,0 4.468,0 v -4.498 h -4.468 V 284.3 H 415.8 v 30.242 z"
   id="path3067"
   inkscape:connector-curvature="0"
   style="fill:#2f6f37" />
	</g>
	<g
   id="g3069">
		<path
   d="m 473.447,314.542 h 5.079 c 0,0 0,-16.949 0,-17.938 0.882,0 4.464,0 4.464,0 v -4.498 h -4.464 V 284.3 h -5.079 v 30.242 z"
   id="path3071"
   inkscape:connector-curvature="0"
   style="fill:#2f6f37" />
	</g>
</g>
</svg>